<svg width="24" height="24" viewBox="0 0 24 24" fill="none" xmlns="http://www.w3.org/2000/svg">
<path d="M20.25 6.75131H16.9612C16.9978 6.72037 17.0353 6.69037 17.0709 6.65756C17.3557 6.4046 17.5851 6.09561 17.745 5.74992C17.9049 5.40423 17.9917 5.02927 18 4.6485C18.0123 4.23194 17.9394 3.81726 17.7856 3.42992C17.6319 3.04258 17.4006 2.69075 17.106 2.39603C16.8113 2.1013 16.4596 1.86991 16.0723 1.71605C15.685 1.56219 15.2703 1.48912 14.8538 1.50131C14.4728 1.50951 14.0977 1.59626 13.7518 1.75613C13.406 1.91599 13.0968 2.14553 12.8438 2.43037C12.4936 2.83621 12.2089 3.29422 12 3.78787C11.7911 3.29422 11.5064 2.83621 11.1562 2.43037C10.9032 2.14553 10.594 1.91599 10.2482 1.75613C9.90232 1.59626 9.52718 1.50951 9.14625 1.50131C8.72969 1.48912 8.31503 1.56219 7.92774 1.71605C7.54044 1.86991 7.18868 2.1013 6.89405 2.39603C6.59941 2.69075 6.36812 3.04258 6.21438 3.42992C6.06064 3.81726 5.98768 4.23194 6 4.6485C6.00833 5.02927 6.09514 5.40423 6.255 5.74992C6.41486 6.09561 6.64434 6.4046 6.92906 6.65756C6.96469 6.6885 7.00219 6.7185 7.03875 6.75131H3.75C3.35218 6.75131 2.97064 6.90934 2.68934 7.19065C2.40804 7.47195 2.25 7.85348 2.25 8.25131V11.2513C2.25 11.6491 2.40804 12.0307 2.68934 12.312C2.97064 12.5933 3.35218 12.7513 3.75 12.7513V18.7513C3.75 19.1491 3.90804 19.5307 4.18934 19.812C4.47064 20.0933 4.85218 20.2513 5.25 20.2513H18.75C19.1478 20.2513 19.5294 20.0933 19.8107 19.812C20.092 19.5307 20.25 19.1491 20.25 18.7513V12.7513C20.6478 12.7513 21.0294 12.5933 21.3107 12.312C21.592 12.0307 21.75 11.6491 21.75 11.2513V8.25131C21.75 7.85348 21.592 7.47195 21.3107 7.19065C21.0294 6.90934 20.6478 6.75131 20.25 6.75131ZM13.9688 3.42412C14.0875 3.29298 14.2321 3.18781 14.3934 3.11522C14.5547 3.04262 14.7293 3.00415 14.9062 3.00225H14.9522C15.1595 3.00354 15.3645 3.04621 15.5552 3.12775C15.7458 3.20929 15.9183 3.32806 16.0624 3.4771C16.2066 3.62615 16.3195 3.80246 16.3947 3.99572C16.4698 4.18898 16.5056 4.39529 16.5 4.60256C16.4981 4.77946 16.4596 4.95406 16.387 5.11539C16.3144 5.27673 16.2093 5.42131 16.0781 5.54006C15.1884 6.32756 13.7119 6.60506 12.7969 6.70256C12.9094 5.70975 13.2188 4.26693 13.9688 3.42412ZM7.96031 3.45787C8.25088 3.16733 8.64441 3.00325 9.05531 3.00131H9.10125C9.27815 3.00322 9.45275 3.04168 9.61409 3.11428C9.77542 3.18688 9.92 3.29205 10.0388 3.42318C10.8253 4.31193 11.1028 5.78568 11.2003 6.69693C10.2891 6.60318 8.81531 6.32193 7.92656 5.53537C7.79543 5.41662 7.69026 5.27204 7.61766 5.11071C7.54506 4.94938 7.5066 4.77478 7.50469 4.59787C7.49887 4.38715 7.53593 4.17745 7.61361 3.98149C7.69128 3.78552 7.80796 3.60738 7.95656 3.45787H7.96031ZM3.75 8.25131H11.25V11.2513H3.75V8.25131ZM5.25 12.7513H11.25V18.7513H5.25V12.7513ZM18.75 18.7513H12.75V12.7513H18.75V18.7513ZM20.25 11.2513H12.75V8.25131H20.25V11.2513Z" fill="#798282"/>
</svg>
